<?xml version="1.0" standalone="no"?>
<!DOCTYPE svg PUBLIC "-//W3C//DTD SVG 20010904//EN"
 "http://www.w3.org/TR/2001/REC-SVG-20010904/DTD/svg10.dtd">
<svg version="1.0" xmlns="http://www.w3.org/2000/svg"
 width="180.000000pt" height="180.000000pt" viewBox="0 0 180.000000 180.000000"
 preserveAspectRatio="xMidYMid meet">

<g transform="translate(0.000000,180.000000) scale(0.100000,-0.100000)"
fill="#000000" stroke="none">
<path d="M720 1781 c-333 -73 -586 -308 -687 -638 -23 -78 -26 -104 -27 -238
0 -123 4 -165 22 -230 24 -88 107 -261 150 -313 l27 -32 55 41 c30 22 57 43
59 45 2 2 -13 28 -34 59 -90 137 -128 262 -129 425 0 222 81 404 250 558 74
68 208 140 314 168 98 26 273 24 373 -4 209 -59 379 -198 471 -385 63 -128 79
-198 80 -337 0 -166 -45 -308 -137 -437 -17 -24 -28 -45 -25 -48 3 -3 30 -24
59 -46 l54 -40 27 33 c44 53 115 197 144 294 24 80 27 105 28 239 0 178 -18
257 -89 402 -114 231 -310 394 -562 469 -121 35 -301 42 -423 15z"/>
<path d="M803 1246 c-96 -31 -178 -110 -214 -205 -28 -75 -23 -185 11 -257 97
-200 371 -250 528 -96 75 74 97 128 97 242 0 108 -15 148 -87 226 -79 86 -226
126 -335 90z"/>
<path d="M730 386 c-36 -8 -87 -22 -115 -31 -65 -22 -212 -98 -250 -129 l-30
-25 30 -25 c50 -42 196 -113 291 -142 80 -24 105 -27 239 -28 123 0 165 4 230
22 85 23 260 106 310 148 l30 24 -25 21 c-75 60 -208 123 -325 155 -82 22
-300 28 -385 10z"/>
</g>
</svg>
